<svg width="739" height="658" viewBox="0 0 739 658" fill="none" xmlns="http://www.w3.org/2000/svg">
<path fill-rule="evenodd" clip-rule="evenodd" d="M425.503 417.698C416.354 458.887 390.625 496.252 351.205 519.011C276.591 562.089 181.183 536.525 138.105 461.911C95.0269 387.297 120.591 291.889 195.205 248.811C234.625 226.052 279.849 222.453 320.094 235.124C320.576 220.234 322.719 205.474 326.446 191.128C276.616 177.369 221.511 182.816 173.205 210.706C77.5466 265.935 44.7715 388.253 100 483.911C155.228 579.57 277.547 612.345 373.205 557.116C421.511 529.227 453.782 484.228 466.781 434.194C452.493 430.249 438.639 424.725 425.503 417.698Z" fill="#7A4BC6"/>
<path fill-rule="evenodd" clip-rule="evenodd" d="M600.054 195.205C643.132 269.819 617.567 365.227 542.954 408.305C523.302 419.651 502.207 426.235 481.007 428.416C475.662 444.159 468.235 459.218 458.848 473.139C494.804 474.272 531.508 465.72 564.954 446.41C660.612 391.182 693.387 268.864 638.159 173.205C582.93 77.5465 460.612 44.7715 364.954 99.9999C331.179 119.5 305.243 147.363 288.253 179.464C304.999 178.205 321.759 179.215 338.08 182.37C350.632 164.816 367.047 149.598 386.954 138.105C461.567 95.0268 556.975 120.591 600.054 195.205Z" fill="#FF0000"/>
<circle cx="281.319" cy="382.1" r="62.9166" transform="rotate(-30 281.319 382.1)" fill="#7A4BC6"/>
<circle cx="467.682" cy="274.504" r="62.9166" transform="rotate(-30 467.682 274.504)" fill="#FF0000"/>
</svg>
