<svg width="21" height="9" viewBox="0 0 21 9" fill="none" xmlns="http://www.w3.org/2000/svg">
<path fill-rule="evenodd" clip-rule="evenodd" d="M4.24265 6.77302C4.7187 6.48769 5.20208 6.11164 5.65686 5.65686C7.21896 4.09476 7.85212 2.19527 7.07107 1.41422C6.51742 0.860559 5.40175 1.01753 4.24265 1.71227V6.77302Z" fill="url(#paint0_linear_5_2)"/>
<ellipse cx="4.24264" cy="4.24264" rx="4" ry="2" transform="rotate(-135 4.24264 4.24264)" fill="url(#paint1_linear_5_2)"/>
<path fill-rule="evenodd" clip-rule="evenodd" d="M4.24264 1.71227C3.76659 1.9976 3.28321 2.37364 2.82843 2.82843C1.26634 4.39052 0.63317 6.29002 1.41422 7.07107C1.96788 7.62472 3.08354 7.46776 4.24264 6.77302V1.71227Z" fill="url(#paint2_linear_5_2)"/>
<path d="M9.25588 3.45455L9.82512 5.31889H9.84625L10.4155 3.45455H11.1041L10.2452 6H9.42615L8.56731 3.45455H9.25588ZM11.3781 6V4.09091H11.9859V6H11.3781ZM11.6826 3.86843C11.5973 3.86843 11.524 3.84026 11.4626 3.78391C11.4013 3.72674 11.3707 3.65797 11.3707 3.57759C11.3707 3.49805 11.4013 3.4301 11.4626 3.37376C11.524 3.31658 11.5973 3.288 11.6826 3.288C11.7688 3.288 11.8421 3.31658 11.9026 3.37376C11.9639 3.4301 11.9946 3.49805 11.9946 3.57759C11.9946 3.65797 11.9639 3.72674 11.9026 3.78391C11.8421 3.84026 11.7688 3.86843 11.6826 3.86843ZM12.9805 4.91122V6H12.3728V4.09091H12.9507V4.44141H12.9718C13.0141 4.32457 13.0862 4.23301 13.1881 4.16673C13.29 4.09961 13.4114 4.06605 13.5523 4.06605C13.6865 4.06605 13.8029 4.09629 13.9015 4.15678C14.001 4.21644 14.078 4.30013 14.1327 4.40785C14.1882 4.51474 14.2156 4.63986 14.2147 4.7832V6H13.607V4.90252C13.6078 4.79646 13.5809 4.7136 13.5262 4.65394C13.4723 4.59428 13.3973 4.56445 13.3012 4.56445C13.2374 4.56445 13.1811 4.57854 13.1322 4.60671C13.0841 4.63406 13.0468 4.67341 13.0203 4.72479C12.9946 4.77616 12.9814 4.8383 12.9805 4.91122ZM15.8227 5.17596V4.09091H16.4293V6H15.8501V5.64453H15.8302C15.7879 5.76136 15.7158 5.85417 15.6139 5.92294C15.5128 5.99089 15.3906 6.02486 15.2473 6.02486C15.1172 6.02486 15.0028 5.99503 14.9042 5.93537C14.8056 5.87571 14.729 5.79244 14.6743 5.68555C14.6196 5.57783 14.5918 5.45188 14.591 5.30771V4.09091H15.1988V5.18839C15.1996 5.29196 15.227 5.37358 15.2808 5.43324C15.3347 5.4929 15.408 5.52273 15.5008 5.52273C15.5613 5.52273 15.6156 5.50947 15.6636 5.48295C15.7125 5.45561 15.7511 5.41625 15.7792 5.36488C15.8082 5.31268 15.8227 5.2497 15.8227 5.17596ZM16.8161 6V4.09091H17.3941V4.44141H17.4152C17.455 4.3254 17.5221 4.23384 17.6165 4.16673C17.711 4.09961 17.8237 4.06605 17.9546 4.06605C18.0872 4.06605 18.2007 4.10002 18.2952 4.16797C18.3896 4.23591 18.4497 4.32706 18.4754 4.44141H18.4953C18.5309 4.32789 18.6005 4.23716 18.7041 4.16921C18.8077 4.10044 18.9299 4.06605 19.0707 4.06605C19.2514 4.06605 19.398 4.12405 19.5107 4.24006C19.6234 4.35523 19.6798 4.51349 19.6798 4.71484V6H19.072V4.85405C19.072 4.75876 19.0475 4.68626 18.9986 4.63654C18.9498 4.586 18.8864 4.56072 18.8085 4.56072C18.7248 4.56072 18.6589 4.58807 18.6109 4.64276C18.5636 4.69661 18.54 4.76912 18.54 4.86026V6H17.9559V4.84783C17.9559 4.75917 17.9318 4.68916 17.8838 4.63778C17.8357 4.58641 17.7723 4.56072 17.6936 4.56072C17.6406 4.56072 17.5938 4.57357 17.5532 4.59925C17.5126 4.62411 17.4806 4.65974 17.4574 4.70614C17.4351 4.75254 17.4239 4.80723 17.4239 4.87021V6H16.8161Z" fill="black"/>
<path d="M9.25588 3.45455L9.28457 3.44578L9.27808 3.42455H9.25588V3.45455ZM9.82512 5.31889L9.79643 5.32765L9.80292 5.34889H9.82512V5.31889ZM9.84625 5.31889V5.34889H9.86846L9.87495 5.32765L9.84625 5.31889ZM10.4155 3.45455V3.42455H10.3933L10.3868 3.44578L10.4155 3.45455ZM11.1041 3.45455L11.1325 3.46414L11.1459 3.42455H11.1041V3.45455ZM10.2452 6V6.03H10.2668L10.2736 6.00959L10.2452 6ZM9.42615 6L9.39773 6.00959L9.40462 6.03H9.42615V6ZM8.56731 3.45455V3.42455H8.52553L8.53889 3.46414L8.56731 3.45455ZM9.22719 3.46331L9.79643 5.32765L9.85382 5.31013L9.28457 3.44578L9.22719 3.46331ZM9.82512 5.34889H9.84625V5.28889H9.82512V5.34889ZM9.87495 5.32765L10.4442 3.46331L10.3868 3.44578L9.81756 5.31013L9.87495 5.32765ZM10.4155 3.48455H11.1041V3.42455H10.4155V3.48455ZM11.0756 3.44495L10.2168 5.99041L10.2736 6.00959L11.1325 3.46414L11.0756 3.44495ZM10.2452 5.97H9.42615V6.03H10.2452V5.97ZM9.45458 5.99041L8.59574 3.44495L8.53889 3.46414L9.39773 6.00959L9.45458 5.99041ZM8.56731 3.48455H9.25588V3.42455H8.56731V3.48455ZM11.3781 6H11.3481V6.03H11.3781V6ZM11.3781 4.09091V4.06091H11.3481V4.09091H11.3781ZM11.9859 4.09091H12.0159V4.06091H11.9859V4.09091ZM11.9859 6V6.03H12.0159V6H11.9859ZM11.4626 3.78391L11.4422 3.80586L11.4423 3.806L11.4626 3.78391ZM11.4626 3.37376L11.4829 3.39585L11.4831 3.3957L11.4626 3.37376ZM11.9026 3.37376L11.882 3.39556L11.8823 3.39585L11.9026 3.37376ZM11.9026 3.78391L11.9231 3.80586L11.9231 3.80585L11.9026 3.78391ZM11.4081 6V4.09091H11.3481V6H11.4081ZM11.3781 4.12091H11.9859V4.06091H11.3781V4.12091ZM11.9559 4.09091V6H12.0159V4.09091H11.9559ZM11.9859 5.97H11.3781V6.03H11.9859V5.97ZM11.6826 3.83843C11.6046 3.83843 11.5386 3.81294 11.4829 3.76182L11.4423 3.806C11.5093 3.86757 11.59 3.89843 11.6826 3.89843V3.83843ZM11.4831 3.76197C11.4276 3.7102 11.4007 3.64925 11.4007 3.57759H11.3407C11.3407 3.66668 11.3751 3.74328 11.4422 3.80585L11.4831 3.76197ZM11.4007 3.57759C11.4007 3.50688 11.4275 3.44681 11.4829 3.39585L11.4423 3.35167C11.3752 3.41339 11.3407 3.48922 11.3407 3.57759H11.4007ZM11.4831 3.3957C11.5388 3.34381 11.6047 3.318 11.6826 3.318V3.258C11.5898 3.258 11.5092 3.28936 11.4422 3.35182L11.4831 3.3957ZM11.6826 3.318C11.7614 3.318 11.8273 3.34385 11.882 3.39556L11.9232 3.35195C11.857 3.28931 11.7762 3.258 11.6826 3.258V3.318ZM11.8823 3.39585C11.9378 3.44681 11.9646 3.50688 11.9646 3.57759H12.0246C12.0246 3.48922 11.9901 3.41339 11.9229 3.35167L11.8823 3.39585ZM11.9646 3.57759C11.9646 3.64925 11.9377 3.7102 11.8822 3.76197L11.9231 3.80585C11.9902 3.74328 12.0246 3.66668 12.0246 3.57759H11.9646ZM11.8822 3.76196C11.8275 3.8129 11.7616 3.83843 11.6826 3.83843V3.89843C11.776 3.89843 11.8568 3.86762 11.9231 3.80586L11.8822 3.76196ZM12.9805 4.91122L12.9505 4.91088V4.91122H12.9805ZM12.9805 6V6.03H13.0105V6H12.9805ZM12.3728 6H12.3428V6.03H12.3728V6ZM12.3728 4.09091V4.06091H12.3428V4.09091H12.3728ZM12.9507 4.09091H12.9807V4.06091H12.9507V4.09091ZM12.9507 4.44141H12.9207V4.47141H12.9507V4.44141ZM12.9718 4.44141V4.47141H12.9929L13 4.45161L12.9718 4.44141ZM13.1881 4.16673L13.2045 4.19187L13.2046 4.19178L13.1881 4.16673ZM13.9015 4.15678L13.8858 4.18236L13.8861 4.18251L13.9015 4.15678ZM14.1327 4.40785L14.1059 4.42143L14.1061 4.42168L14.1327 4.40785ZM14.2147 4.7832L14.1847 4.78303V4.7832H14.2147ZM14.2147 6V6.03H14.2447V6H14.2147ZM13.607 6H13.577V6.03H13.607V6ZM13.607 4.90252L13.577 4.90229V4.90252H13.607ZM13.5262 4.65394L13.5039 4.67405L13.504 4.67421L13.5262 4.65394ZM13.1322 4.60671L13.147 4.63279L13.1471 4.6327L13.1322 4.60671ZM13.0203 4.72479L12.9936 4.71103L12.9935 4.71137L13.0203 4.72479ZM12.9505 4.91122V6H13.0105V4.91122H12.9505ZM12.9805 5.97H12.3728V6.03H12.9805V5.97ZM12.4028 6V4.09091H12.3428V6H12.4028ZM12.3728 4.12091H12.9507V4.06091H12.3728V4.12091ZM12.9207 4.09091V4.44141H12.9807V4.09091H12.9207ZM12.9507 4.47141H12.9718V4.41141H12.9507V4.47141ZM13 4.45161C13.0401 4.34077 13.1081 4.25452 13.2045 4.19187L13.1717 4.14158C13.0642 4.21151 12.988 4.30838 12.9436 4.4312L13 4.45161ZM13.2046 4.19178C13.3009 4.12837 13.4163 4.09605 13.5523 4.09605V4.03605C13.4065 4.03605 13.2791 4.07085 13.1716 4.14167L13.2046 4.19178ZM13.5523 4.09605C13.6819 4.09605 13.7927 4.1252 13.8858 4.18235L13.9172 4.13121C13.8132 4.06739 13.6911 4.03605 13.5523 4.03605V4.09605ZM13.8861 4.18251C13.9805 4.23914 14.0537 4.31852 14.1059 4.42143L14.1594 4.39427C14.1023 4.28174 14.0214 4.19375 13.917 4.13106L13.8861 4.18251ZM14.1061 4.42168C14.159 4.52349 14.1855 4.64363 14.1847 4.78303L14.2447 4.78338C14.2456 4.63608 14.2175 4.50598 14.1593 4.39402L14.1061 4.42168ZM14.1847 4.7832V6H14.2447V4.7832H14.1847ZM14.2147 5.97H13.607V6.03H14.2147V5.97ZM13.637 6V4.90252H13.577V6H13.637ZM13.637 4.90276C13.6378 4.79153 13.6095 4.70048 13.5483 4.63367L13.504 4.67421C13.5522 4.72672 13.5777 4.80139 13.577 4.90229L13.637 4.90276ZM13.5484 4.63384C13.4878 4.56665 13.404 4.53445 13.3012 4.53445V4.59445C13.3906 4.59445 13.4568 4.62192 13.5039 4.67404L13.5484 4.63384ZM13.3012 4.53445C13.2328 4.53445 13.1712 4.54959 13.1172 4.58072L13.1471 4.6327C13.1909 4.60749 13.242 4.59445 13.3012 4.59445V4.53445ZM13.1173 4.58064C13.064 4.61099 13.0227 4.65474 12.9936 4.71103L13.047 4.73855C13.0709 4.69209 13.1042 4.65712 13.147 4.63279L13.1173 4.58064ZM12.9935 4.71137C12.9653 4.76775 12.9514 4.83461 12.9505 4.91088L13.0105 4.91156C13.0113 4.842 13.024 4.78457 13.0471 4.7382L12.9935 4.71137ZM15.8227 4.09091V4.06091H15.7927V4.09091H15.8227ZM16.4293 4.09091H16.4593V4.06091H16.4293V4.09091ZM16.4293 6V6.03H16.4593V6H16.4293ZM15.8501 6H15.8201V6.03H15.8501V6ZM15.8501 5.64453H15.8801V5.61453H15.8501V5.64453ZM15.8302 5.64453V5.61453H15.8091L15.802 5.63433L15.8302 5.64453ZM15.6139 5.92294L15.6307 5.94784L15.6307 5.94781L15.6139 5.92294ZM14.9042 5.93537L14.8887 5.96104L14.8887 5.96104L14.9042 5.93537ZM14.6743 5.68555L14.6475 5.69913L14.6476 5.69921L14.6743 5.68555ZM14.591 5.30771H14.561L14.561 5.30788L14.591 5.30771ZM14.591 4.09091V4.06091H14.561V4.09091H14.591ZM15.1988 4.09091H15.2288V4.06091H15.1988V4.09091ZM15.1988 5.18839H15.1688L15.1688 5.18863L15.1988 5.18839ZM15.2808 5.43324L15.3031 5.41314L15.3031 5.41314L15.2808 5.43324ZM15.6636 5.48295L15.6781 5.50922L15.6783 5.50914L15.6636 5.48295ZM15.7792 5.36488L15.753 5.35031L15.7529 5.35045L15.7792 5.36488ZM15.8527 5.17596V4.09091H15.7927V5.17596H15.8527ZM15.8227 4.12091H16.4293V4.06091H15.8227V4.12091ZM16.3993 4.09091V6H16.4593V4.09091H16.3993ZM16.4293 5.97H15.8501V6.03H16.4293V5.97ZM15.8801 6V5.64453H15.8201V6H15.8801ZM15.8501 5.61453H15.8302V5.67453H15.8501V5.61453ZM15.802 5.63433C15.7619 5.74525 15.6937 5.83289 15.5971 5.89807L15.6307 5.94781C15.7379 5.87544 15.814 5.77748 15.8584 5.65474L15.802 5.63433ZM15.5972 5.89804C15.5019 5.96211 15.3857 5.99486 15.2473 5.99486V6.05486C15.3955 6.05486 15.5238 6.01966 15.6307 5.94784L15.5972 5.89804ZM15.2473 5.99486C15.1219 5.99486 15.0131 5.96617 14.9198 5.9097L14.8887 5.96104C14.9926 6.02388 15.1124 6.05486 15.2473 6.05486V5.99486ZM14.9198 5.9097C14.8261 5.85305 14.7533 5.77403 14.701 5.67188L14.6476 5.69921C14.7047 5.81084 14.7851 5.89837 14.8887 5.96104L14.9198 5.9097ZM14.701 5.67197C14.6488 5.56913 14.6218 5.44794 14.621 5.30753L14.561 5.30788C14.5619 5.45582 14.5904 5.58652 14.6475 5.69913L14.701 5.67197ZM14.621 5.30771V4.09091H14.561V5.30771H14.621ZM14.591 4.12091H15.1988V4.06091H14.591V4.12091ZM15.1688 4.09091V5.18839H15.2288V4.09091H15.1688ZM15.1688 5.18863C15.1697 5.29737 15.1985 5.38681 15.2586 5.45334L15.3031 5.41314C15.2554 5.36035 15.2296 5.28656 15.2288 5.18815L15.1688 5.18863ZM15.2586 5.45334C15.319 5.5203 15.401 5.55273 15.5008 5.55273V5.49273C15.4151 5.49273 15.3504 5.4655 15.3031 5.41314L15.2586 5.45334ZM15.5008 5.55273C15.5658 5.55273 15.6252 5.53843 15.6781 5.50922L15.6491 5.45669C15.606 5.48051 15.5568 5.49273 15.5008 5.49273V5.55273ZM15.6783 5.50914C15.7323 5.47892 15.7748 5.43537 15.8055 5.3793L15.7529 5.35045C15.7273 5.39713 15.6927 5.43231 15.649 5.45677L15.6783 5.50914ZM15.8055 5.37945C15.8374 5.32186 15.8527 5.25362 15.8527 5.17596H15.7927C15.7927 5.24579 15.779 5.3035 15.753 5.35031L15.8055 5.37945ZM16.8161 6H16.7861V6.03H16.8161V6ZM16.8161 4.09091V4.06091H16.7861V4.09091H16.8161ZM17.3941 4.09091H17.4241V4.06091H17.3941V4.09091ZM17.3941 4.44141H17.3641V4.47141H17.3941V4.44141ZM17.4152 4.44141V4.47141H17.4366L17.4436 4.45114L17.4152 4.44141ZM17.6165 4.16673L17.6339 4.19118L17.6339 4.19118L17.6165 4.16673ZM18.2952 4.16797L18.2776 4.19232L18.2776 4.19232L18.2952 4.16797ZM18.4754 4.44141L18.4461 4.44798L18.4514 4.47141H18.4754V4.44141ZM18.4953 4.44141V4.47141H18.5173L18.5239 4.45039L18.4953 4.44141ZM18.7041 4.16921L18.7205 4.1943L18.7207 4.1942L18.7041 4.16921ZM19.5107 4.24006L19.4892 4.26096L19.4893 4.26104L19.5107 4.24006ZM19.6798 6V6.03H19.7098V6H19.6798ZM19.072 6H19.042V6.03H19.072V6ZM18.9986 4.63654L18.9771 4.6574L18.9773 4.65758L18.9986 4.63654ZM18.6109 4.64276L18.5883 4.62295L18.5883 4.62298L18.6109 4.64276ZM18.54 6V6.03H18.57V6H18.54ZM17.9559 6H17.9259V6.03H17.9559V6ZM17.8838 4.63778L17.9057 4.61729L17.9057 4.61729L17.8838 4.63778ZM17.5532 4.59925L17.5688 4.62484L17.5692 4.62461L17.5532 4.59925ZM17.4574 4.70614L17.4306 4.69273L17.4304 4.69311L17.4574 4.70614ZM17.4239 6V6.03H17.4539V6H17.4239ZM16.8461 6V4.09091H16.7861V6H16.8461ZM16.8161 4.12091H17.3941V4.06091H16.8161V4.12091ZM17.3641 4.09091V4.44141H17.4241V4.09091H17.3641ZM17.3941 4.47141H17.4152V4.41141H17.3941V4.47141ZM17.4436 4.45114C17.4814 4.3407 17.5449 4.25444 17.6339 4.19118L17.5992 4.14227C17.4993 4.21324 17.4285 4.3101 17.3868 4.43168L17.4436 4.45114ZM17.6339 4.19118C17.7227 4.12813 17.8291 4.09605 17.9546 4.09605V4.03605C17.8183 4.03605 17.6993 4.07109 17.5992 4.14227L17.6339 4.19118ZM17.9546 4.09605C18.0818 4.09605 18.189 4.12855 18.2776 4.19232L18.3127 4.14361C18.2124 4.0715 18.0926 4.03605 17.9546 4.03605V4.09605ZM18.2776 4.19232C18.3661 4.25595 18.422 4.34074 18.4461 4.44798L18.5047 4.43483C18.4774 4.31338 18.4131 4.21588 18.3127 4.14361L18.2776 4.19232ZM18.4754 4.47141H18.4953V4.41141H18.4754V4.47141ZM18.5239 4.45039C18.5574 4.34377 18.6225 4.25861 18.7205 4.1943L18.6876 4.14413C18.5785 4.2157 18.5044 4.312 18.4666 4.43242L18.5239 4.45039ZM18.7207 4.1942C18.8187 4.12912 18.935 4.09605 19.0707 4.09605V4.03605C18.9248 4.03605 18.7966 4.07176 18.6875 4.14422L18.7207 4.1942ZM19.0707 4.09605C19.2443 4.09605 19.3828 4.15148 19.4892 4.26096L19.5322 4.21915C19.4132 4.09663 19.2584 4.03605 19.0707 4.03605V4.09605ZM19.4893 4.26104C19.5952 4.36929 19.6498 4.51928 19.6498 4.71484H19.7098C19.7098 4.50771 19.6516 4.34118 19.5322 4.21908L19.4893 4.26104ZM19.6498 4.71484V6H19.7098V4.71484H19.6498ZM19.6798 5.97H19.072V6.03H19.6798V5.97ZM19.102 6V4.85405H19.042V6H19.102ZM19.102 4.85405C19.102 4.75384 19.0762 4.67263 19.02 4.61551L18.9773 4.65758C19.0189 4.69988 19.042 4.76368 19.042 4.85405H19.102ZM19.0202 4.61568C18.965 4.55864 18.8935 4.53072 18.8085 4.53072V4.59072C18.8792 4.59072 18.9345 4.61336 18.9771 4.6574L19.0202 4.61568ZM18.8085 4.53072C18.7176 4.53072 18.643 4.56078 18.5883 4.62295L18.6334 4.66256C18.6749 4.61535 18.732 4.59072 18.8085 4.59072V4.53072ZM18.5883 4.62298C18.5351 4.68367 18.51 4.76388 18.51 4.86026H18.57C18.57 4.77435 18.5922 4.70956 18.6334 4.66254L18.5883 4.62298ZM18.51 4.86026V6H18.57V4.86026H18.51ZM18.54 5.97H17.9559V6.03H18.54V5.97ZM17.9859 6V4.84783H17.9259V6H17.9859ZM17.9859 4.84783C17.9859 4.75363 17.9602 4.67556 17.9057 4.61729L17.8619 4.65828C17.9035 4.70275 17.9259 4.76472 17.9259 4.84783H17.9859ZM17.9057 4.61729C17.8512 4.5591 17.7795 4.53072 17.6936 4.53072V4.59072C17.7651 4.59072 17.8202 4.61372 17.8619 4.65828L17.9057 4.61729ZM17.6936 4.53072C17.6355 4.53072 17.583 4.54487 17.5371 4.5739L17.5692 4.62461C17.6045 4.60227 17.6456 4.59072 17.6936 4.59072V4.53072ZM17.5375 4.57367C17.4917 4.60172 17.4561 4.64177 17.4306 4.69273L17.4843 4.71956C17.5052 4.67771 17.5334 4.6465 17.5688 4.62484L17.5375 4.57367ZM17.4304 4.69311C17.4057 4.74438 17.3939 4.80371 17.3939 4.87021H17.4539C17.4539 4.81076 17.4644 4.76071 17.4845 4.71917L17.4304 4.69311ZM17.3939 4.87021V6H17.4539V4.87021H17.3939ZM17.4239 5.97H16.8161V6.03H17.4239V5.97Z" fill="white"/>
<defs>
<linearGradient id="paint0_linear_5_2" x1="2.82843" y1="2.82843" x2="5.65686" y2="5.65686" gradientUnits="userSpaceOnUse">
<stop stop-color="#FF0000"/>
<stop offset="0.848958" stop-color="#FF6AA0"/>
</linearGradient>
<linearGradient id="paint1_linear_5_2" x1="7.07107" y1="4.24265" x2="0.707104" y2="4.24265" gradientUnits="userSpaceOnUse">
<stop stop-color="#9E00FF"/>
<stop offset="1" stop-color="#0500FF"/>
</linearGradient>
<linearGradient id="paint2_linear_5_2" x1="2.82843" y1="2.82843" x2="5.65686" y2="5.65685" gradientUnits="userSpaceOnUse">
<stop stop-color="#FF0000"/>
<stop offset="1" stop-color="#FF6AA0"/>
</linearGradient>
</defs>
</svg>
