<svg width="1828" height="658" viewBox="0 0 1828 658" fill="none" xmlns="http://www.w3.org/2000/svg">
<path d="M978.039 218.922L886.047 499H829.992L738.391 218.922H802.062L857.922 405.836L913.977 218.922H978.039ZM1062.22 232.984C1062.22 237.932 1061.24 242.555 1059.29 246.852C1057.47 251.148 1054.93 254.924 1051.67 258.18C1048.42 261.305 1044.58 263.844 1040.15 265.797C1035.85 267.62 1031.23 268.531 1026.28 268.531C1021.33 268.531 1016.65 267.62 1012.22 265.797C1007.92 263.844 1004.15 261.305 1000.89 258.18C997.766 254.924 995.227 251.148 993.273 246.852C991.451 242.555 990.539 237.932 990.539 232.984C990.539 228.167 991.451 223.609 993.273 219.312C995.227 214.885 997.766 211.109 1000.89 207.984C1004.15 204.729 1007.92 202.19 1012.22 200.367C1016.65 198.414 1021.33 197.438 1026.28 197.438C1031.23 197.438 1035.85 198.414 1040.15 200.367C1044.58 202.19 1048.42 204.729 1051.67 207.984C1054.93 211.109 1057.47 214.885 1059.29 219.312C1061.24 223.609 1062.22 228.167 1062.22 232.984ZM1053.04 499H999.328V289.82H1053.04V499ZM1147.18 499H1093.86V289.82H1106.75L1124.33 310.133C1132.92 302.32 1142.62 296.331 1153.43 292.164C1164.37 287.867 1175.76 285.719 1187.61 285.719C1200.37 285.719 1212.41 288.193 1223.74 293.141C1235.07 297.958 1244.97 304.664 1253.43 313.258C1261.89 321.721 1268.53 331.682 1273.35 343.141C1278.3 354.469 1280.77 366.578 1280.77 379.469V499H1227.45V379.469C1227.45 374 1226.41 368.857 1224.33 364.039C1222.24 359.091 1219.38 354.794 1215.73 351.148C1212.09 347.503 1207.86 344.638 1203.04 342.555C1198.22 340.471 1193.08 339.43 1187.61 339.43C1182.01 339.43 1176.74 340.471 1171.79 342.555C1166.84 344.638 1162.54 347.503 1158.9 351.148C1155.25 354.794 1152.39 359.091 1150.3 364.039C1148.22 368.857 1147.18 374 1147.18 379.469V499ZM1471.01 474.586C1466.71 478.492 1462.09 482.203 1457.14 485.719C1452.32 489.104 1447.24 492.099 1441.91 494.703C1436.57 497.177 1431.03 499.13 1425.3 500.562C1419.71 502.125 1413.98 502.906 1408.12 502.906C1395.23 502.906 1383.12 500.628 1371.79 496.07C1360.46 491.513 1350.5 485.068 1341.91 476.734C1333.44 468.271 1326.74 458.049 1321.79 446.07C1316.97 433.961 1314.56 420.419 1314.56 405.445V289.82H1367.69V405.445C1367.69 412.477 1368.73 418.792 1370.81 424.391C1373.03 429.859 1375.96 434.482 1379.6 438.258C1383.25 442.034 1387.48 444.898 1392.3 446.852C1397.24 448.805 1402.52 449.781 1408.12 449.781C1413.59 449.781 1418.73 448.544 1423.55 446.07C1428.49 443.466 1432.79 440.081 1436.44 435.914C1440.08 431.747 1442.95 427.06 1445.03 421.852C1447.11 416.513 1448.16 411.044 1448.16 405.445V289.82H1501.48V499H1488.59L1471.01 474.586ZM1808.31 499H1755.19V366.188C1755.19 362.542 1754.47 359.091 1753.04 355.836C1751.74 352.581 1749.85 349.716 1747.38 347.242C1744.9 344.768 1742.04 342.88 1738.78 341.578C1735.53 340.146 1732.08 339.43 1728.43 339.43C1724.78 339.43 1721.33 340.146 1718.08 341.578C1714.95 342.88 1712.15 344.768 1709.68 347.242C1707.34 349.716 1705.45 352.581 1704.02 355.836C1702.71 359.091 1702.06 362.542 1702.06 366.188V499H1648.74V366.188C1648.74 362.542 1648.03 359.091 1646.59 355.836C1645.29 352.581 1643.4 349.716 1640.93 347.242C1638.46 344.768 1635.59 342.88 1632.34 341.578C1629.08 340.146 1625.63 339.43 1621.98 339.43C1618.34 339.43 1614.89 340.146 1611.63 341.578C1608.51 342.88 1605.71 344.768 1603.23 347.242C1600.89 349.716 1599 352.581 1597.57 355.836C1596.27 359.091 1595.62 362.542 1595.62 366.188V499H1542.3V289.82H1555.19L1569.64 305.836C1577.06 299.586 1585.2 294.768 1594.05 291.383C1603.04 287.867 1612.35 286.109 1621.98 286.109C1631.75 286.109 1641.26 287.932 1650.5 291.578C1659.88 295.224 1668.08 301.539 1675.11 310.523C1678.36 306.096 1682.08 302.32 1686.24 299.195C1690.41 296.07 1694.77 293.531 1699.33 291.578C1704.02 289.625 1708.83 288.258 1713.78 287.477C1718.73 286.565 1723.61 286.109 1728.43 286.109C1739.5 286.109 1749.85 288.193 1759.48 292.359C1769.25 296.526 1777.71 302.255 1784.88 309.547C1792.17 316.708 1797.9 325.172 1802.06 334.938C1806.23 344.703 1808.31 355.12 1808.31 366.188V499Z" fill="white"/>
<path fill-rule="evenodd" clip-rule="evenodd" d="M425.503 417.698C416.354 458.887 390.625 496.252 351.205 519.011C276.591 562.089 181.183 536.525 138.105 461.911C95.0269 387.297 120.591 291.889 195.205 248.811C234.625 226.052 279.849 222.453 320.094 235.124C320.576 220.234 322.719 205.474 326.446 191.128C276.616 177.369 221.511 182.816 173.205 210.706C77.5466 265.935 44.7715 388.253 100 483.911C155.228 579.57 277.547 612.345 373.205 557.116C421.511 529.227 453.782 484.228 466.781 434.194C452.493 430.249 438.639 424.725 425.503 417.698Z" fill="#7A4BC6"/>
<path fill-rule="evenodd" clip-rule="evenodd" d="M600.054 195.205C643.132 269.819 617.567 365.227 542.954 408.305C523.302 419.651 502.207 426.235 481.007 428.416C475.662 444.159 468.235 459.218 458.848 473.139C494.804 474.272 531.508 465.72 564.954 446.41C660.612 391.182 693.387 268.864 638.159 173.205C582.93 77.5465 460.612 44.7715 364.954 99.9999C331.179 119.5 305.243 147.363 288.253 179.464C304.999 178.205 321.759 179.215 338.08 182.37C350.632 164.816 367.047 149.598 386.954 138.105C461.567 95.0268 556.975 120.591 600.054 195.205Z" fill="#FF0000"/>
<circle cx="281.319" cy="382.1" r="62.9166" transform="rotate(-30 281.319 382.1)" fill="#7A4BC6"/>
<circle cx="467.682" cy="274.504" r="62.9166" transform="rotate(-30 467.682 274.504)" fill="#FF0000"/>
</svg>
