<svg width="1828" height="658" viewBox="0 0 1828 658" fill="none" xmlns="http://www.w3.org/2000/svg">
<path d="M978.039 218.922L886.047 499H829.992L738.391 218.922H802.062L857.922 405.836L913.977 218.922H978.039ZM1062.22 232.984C1062.22 237.932 1061.24 242.555 1059.29 246.852C1057.47 251.148 1054.93 254.924 1051.67 258.18C1048.42 261.305 1044.58 263.844 1040.15 265.797C1035.85 267.62 1031.23 268.531 1026.28 268.531C1021.33 268.531 1016.65 267.62 1012.22 265.797C1007.92 263.844 1004.15 261.305 1000.89 258.18C997.766 254.924 995.227 251.148 993.273 246.852C991.451 242.555 990.539 237.932 990.539 232.984C990.539 228.167 991.451 223.609 993.273 219.312C995.227 214.885 997.766 211.109 1000.89 207.984C1004.15 204.729 1007.92 202.19 1012.22 200.367C1016.65 198.414 1021.33 197.438 1026.28 197.438C1031.23 197.438 1035.85 198.414 1040.15 200.367C1044.58 202.19 1048.42 204.729 1051.67 207.984C1054.93 211.109 1057.47 214.885 1059.29 219.312C1061.24 223.609 1062.22 228.167 1062.22 232.984ZM1053.04 499H999.328V289.82H1053.04V499ZM1147.18 499H1093.86V289.82H1106.75L1124.33 310.133C1132.92 302.32 1142.62 296.331 1153.43 292.164C1164.37 287.867 1175.76 285.719 1187.61 285.719C1200.37 285.719 1212.41 288.193 1223.74 293.141C1235.07 297.958 1244.97 304.664 1253.43 313.258C1261.89 321.721 1268.53 331.682 1273.35 343.141C1278.3 354.469 1280.77 366.578 1280.77 379.469V499H1227.45V379.469C1227.45 374 1226.41 368.857 1224.33 364.039C1222.24 359.091 1219.38 354.794 1215.73 351.148C1212.09 347.503 1207.86 344.638 1203.04 342.555C1198.22 340.471 1193.08 339.43 1187.61 339.43C1182.01 339.43 1176.74 340.471 1171.79 342.555C1166.84 344.638 1162.54 347.503 1158.9 351.148C1155.25 354.794 1152.39 359.091 1150.3 364.039C1148.22 368.857 1147.18 374 1147.18 379.469V499ZM1471.01 474.586C1466.71 478.492 1462.09 482.203 1457.14 485.719C1452.32 489.104 1447.24 492.099 1441.91 494.703C1436.57 497.177 1431.03 499.13 1425.3 500.562C1419.71 502.125 1413.98 502.906 1408.12 502.906C1395.23 502.906 1383.12 500.628 1371.79 496.07C1360.46 491.513 1350.5 485.068 1341.91 476.734C1333.44 468.271 1326.74 458.049 1321.79 446.07C1316.97 433.961 1314.56 420.419 1314.56 405.445V289.82H1367.69V405.445C1367.69 412.477 1368.73 418.792 1370.81 424.391C1373.03 429.859 1375.96 434.482 1379.6 438.258C1383.25 442.034 1387.48 444.898 1392.3 446.852C1397.24 448.805 1402.52 449.781 1408.12 449.781C1413.59 449.781 1418.73 448.544 1423.55 446.07C1428.49 443.466 1432.79 440.081 1436.44 435.914C1440.08 431.747 1442.95 427.06 1445.03 421.852C1447.11 416.513 1448.16 411.044 1448.16 405.445V289.82H1501.48V499H1488.59L1471.01 474.586ZM1808.31 499H1755.19V366.188C1755.19 362.542 1754.47 359.091 1753.04 355.836C1751.74 352.581 1749.85 349.716 1747.38 347.242C1744.9 344.768 1742.04 342.88 1738.78 341.578C1735.53 340.146 1732.08 339.43 1728.43 339.43C1724.78 339.43 1721.33 340.146 1718.08 341.578C1714.95 342.88 1712.15 344.768 1709.68 347.242C1707.34 349.716 1705.45 352.581 1704.02 355.836C1702.71 359.091 1702.06 362.542 1702.06 366.188V499H1648.74V366.188C1648.74 362.542 1648.03 359.091 1646.59 355.836C1645.29 352.581 1643.4 349.716 1640.93 347.242C1638.46 344.768 1635.59 342.88 1632.34 341.578C1629.08 340.146 1625.63 339.43 1621.98 339.43C1618.34 339.43 1614.89 340.146 1611.63 341.578C1608.51 342.88 1605.71 344.768 1603.23 347.242C1600.89 349.716 1599 352.581 1597.57 355.836C1596.27 359.091 1595.62 362.542 1595.62 366.188V499H1542.3V289.82H1555.19L1569.64 305.836C1577.06 299.586 1585.2 294.768 1594.05 291.383C1603.04 287.867 1612.35 286.109 1621.98 286.109C1631.75 286.109 1641.26 287.932 1650.5 291.578C1659.88 295.224 1668.08 301.539 1675.11 310.523C1678.36 306.096 1682.08 302.32 1686.24 299.195C1690.41 296.07 1694.77 293.531 1699.33 291.578C1704.02 289.625 1708.83 288.258 1713.78 287.477C1718.73 286.565 1723.61 286.109 1728.43 286.109C1739.5 286.109 1749.85 288.193 1759.48 292.359C1769.25 296.526 1777.71 302.255 1784.88 309.547C1792.17 316.708 1797.9 325.172 1802.06 334.938C1806.23 344.703 1808.31 355.12 1808.31 366.188V499Z" fill="white"/>
<path d="M978.039 218.922L994.19 224.227L1001.52 201.922H978.039V218.922ZM886.047 499V516H898.357L902.198 504.305L886.047 499ZM829.992 499L813.834 504.285L817.666 516H829.992V499ZM738.391 218.922V201.922H714.945L722.233 224.206L738.391 218.922ZM802.062 218.922L818.351 214.054L814.725 201.922H802.062V218.922ZM857.922 405.836L841.634 410.704L857.893 465.111L874.205 410.719L857.922 405.836ZM913.977 218.922V201.922H901.327L897.693 214.039L913.977 218.922ZM961.888 213.617L869.896 493.695L902.198 504.305L994.19 224.227L961.888 213.617ZM886.047 482H829.992V516H886.047V482ZM846.15 493.715L754.548 213.637L722.233 224.206L813.834 504.285L846.15 493.715ZM738.391 235.922H802.062V201.922H738.391V235.922ZM785.774 223.79L841.634 410.704L874.21 400.968L818.351 214.054L785.774 223.79ZM874.205 410.719L930.26 223.805L897.693 214.039L841.638 400.953L874.205 410.719ZM913.977 235.922H978.039V201.922H913.977V235.922ZM1059.29 246.852L1043.81 239.817L1043.72 240.013L1043.64 240.212L1059.29 246.852ZM1051.67 258.18L1063.44 270.443L1063.57 270.323L1063.69 270.201L1051.67 258.18ZM1040.15 265.797L1046.79 281.447L1046.9 281.399L1047.01 281.35L1040.15 265.797ZM1012.22 265.797L1005.18 281.273L1005.46 281.4L1005.75 281.516L1012.22 265.797ZM1000.89 258.18L988.627 269.953L988.867 270.203L989.118 270.443L1000.89 258.18ZM993.273 246.852L977.624 253.491L977.708 253.69L977.797 253.886L993.273 246.852ZM993.273 219.312L977.72 212.451L977.671 212.562L977.624 212.673L993.273 219.312ZM1000.89 207.984L1012.91 220.005L1000.89 207.984ZM1012.22 200.367L1018.86 216.017L1018.97 215.97L1019.08 215.921L1012.22 200.367ZM1040.15 200.367L1033.11 215.843L1033.39 215.97L1033.68 216.087L1040.15 200.367ZM1051.67 207.984L1039.65 220.005L1039.77 220.128L1039.9 220.248L1051.67 207.984ZM1059.29 219.312L1043.57 225.785L1043.69 226.068L1043.81 226.347L1059.29 219.312ZM1053.04 499V516H1070.04V499H1053.04ZM999.328 499H982.328V516H999.328V499ZM999.328 289.82V272.82H982.328V289.82H999.328ZM1053.04 289.82H1070.04V272.82H1053.04V289.82ZM1045.22 232.984C1045.22 235.625 1044.71 237.836 1043.81 239.817L1074.77 253.886C1077.77 247.274 1079.22 240.239 1079.22 232.984H1045.22ZM1043.64 240.212C1042.66 242.527 1041.34 244.47 1039.65 246.159L1063.69 270.201C1068.51 265.379 1072.28 259.769 1074.94 253.491L1043.64 240.212ZM1039.9 245.916C1038.18 247.57 1036.03 249.033 1033.29 250.243L1047.01 281.35C1053.12 278.654 1058.66 275.04 1063.44 270.443L1039.9 245.916ZM1033.51 250.147C1031.44 251.026 1029.09 251.531 1026.28 251.531V285.531C1033.37 285.531 1040.27 284.213 1046.79 281.447L1033.51 250.147ZM1026.28 251.531C1023.48 251.531 1021 251.026 1018.69 250.077L1005.75 281.516C1012.3 284.213 1019.19 285.531 1026.28 285.531V251.531ZM1019.25 250.321C1016.62 249.126 1014.47 247.65 1012.66 245.916L989.118 270.443C993.822 274.96 999.219 278.562 1005.18 281.273L1019.25 250.321ZM1013.15 246.407C1011.42 244.601 1009.94 242.445 1008.75 239.817L977.797 253.886C980.509 259.852 984.111 265.248 988.627 269.953L1013.15 246.407ZM1008.92 240.212C1008.04 238.14 1007.54 235.79 1007.54 232.984H973.539C973.539 240.074 974.857 246.97 977.624 253.491L1008.92 240.212ZM1007.54 232.984C1007.54 230.373 1008.02 228.081 1008.92 225.952L977.624 212.673C974.881 219.138 973.539 225.96 973.539 232.984H1007.54ZM1008.83 226.174C1010.01 223.488 1011.41 221.509 1012.91 220.005L988.87 195.964C984.123 200.71 980.441 206.283 977.72 212.451L1008.83 226.174ZM1012.91 220.005C1014.6 218.316 1016.54 216.999 1018.86 216.017L1005.58 184.717C999.301 187.381 993.691 191.142 988.87 195.964L1012.91 220.005ZM1019.08 215.921C1021.3 214.943 1023.64 214.438 1026.28 214.438V180.438C1019.03 180.438 1012 181.885 1005.36 184.814L1019.08 215.921ZM1026.28 214.438C1028.92 214.438 1031.13 214.943 1033.11 215.843L1047.18 184.891C1040.57 181.885 1033.54 180.438 1026.28 180.438V214.438ZM1033.68 216.087C1036.11 217.09 1038.05 218.401 1039.65 220.005L1063.69 195.964C1058.79 191.058 1053.04 187.29 1046.62 184.648L1033.68 216.087ZM1039.9 220.248C1041.35 221.639 1042.59 223.406 1043.57 225.785L1075.01 212.84C1072.34 206.365 1068.51 200.58 1063.44 195.721L1039.9 220.248ZM1043.81 226.347C1044.74 228.388 1045.22 230.542 1045.22 232.984H1079.22C1079.22 225.792 1077.74 218.831 1074.77 212.278L1043.81 226.347ZM1053.04 482H999.328V516H1053.04V482ZM1016.33 499V289.82H982.328V499H1016.33ZM999.328 306.82H1053.04V272.82H999.328V306.82ZM1036.04 289.82V499H1070.04V289.82H1036.04ZM1147.18 499V516H1164.18V499H1147.18ZM1093.86 499H1076.86V516H1093.86V499ZM1093.86 289.82V272.82H1076.86V289.82H1093.86ZM1106.75 289.82L1119.6 278.696L1114.52 272.82H1106.75V289.82ZM1124.33 310.133L1111.47 321.257L1122.87 334.43L1135.76 322.712L1124.33 310.133ZM1153.43 292.164L1159.55 308.026L1159.6 308.007L1159.65 307.987L1153.43 292.164ZM1223.74 293.141L1216.94 308.719L1217.01 308.752L1217.09 308.785L1223.74 293.141ZM1253.43 313.258L1241.32 325.187L1241.36 325.233L1241.41 325.279L1253.43 313.258ZM1273.35 343.141L1257.68 349.73L1257.73 349.838L1257.77 349.945L1273.35 343.141ZM1280.77 499V516H1297.77V499H1280.77ZM1227.45 499H1210.45V516H1227.45V499ZM1224.33 364.039L1208.66 370.636L1208.69 370.711L1208.72 370.787L1224.33 364.039ZM1203.04 342.555L1209.79 326.951L1203.04 342.555ZM1171.79 342.555L1165.19 326.887L1171.79 342.555ZM1150.3 364.039L1165.91 370.787L1165.94 370.711L1165.97 370.636L1150.3 364.039ZM1147.18 482H1093.86V516H1147.18V482ZM1110.86 499V289.82H1076.86V499H1110.86ZM1093.86 306.82H1106.75V272.82H1093.86V306.82ZM1093.9 300.945L1111.47 321.257L1137.18 299.008L1119.6 278.696L1093.9 300.945ZM1135.76 322.712C1142.81 316.309 1150.7 311.435 1159.55 308.026L1147.31 276.302C1134.54 281.227 1123.04 288.331 1112.89 297.554L1135.76 322.712ZM1159.65 307.987C1168.59 304.474 1177.87 302.719 1187.61 302.719V268.719C1173.65 268.719 1160.15 271.26 1147.21 276.341L1159.65 307.987ZM1187.61 302.719C1198.11 302.719 1207.83 304.739 1216.94 308.719L1230.55 277.562C1217 271.646 1202.63 268.719 1187.61 268.719V302.719ZM1217.09 308.785C1226.42 312.751 1234.45 318.209 1241.32 325.187L1265.54 301.329C1255.49 291.119 1243.73 283.166 1230.4 277.497L1217.09 308.785ZM1241.41 325.279C1248.26 332.125 1253.68 340.222 1257.68 349.73L1289.02 336.552C1283.38 323.143 1275.53 311.318 1265.45 301.237L1241.41 325.279ZM1257.77 349.945C1261.74 359.035 1263.77 368.818 1263.77 379.469H1297.77C1297.77 364.339 1294.86 349.902 1288.93 336.336L1257.77 349.945ZM1263.77 379.469V499H1297.77V379.469H1263.77ZM1280.77 482H1227.45V516H1280.77V482ZM1244.45 499V379.469H1210.45V499H1244.45ZM1244.45 379.469C1244.45 371.778 1242.97 364.329 1239.93 357.292L1208.72 370.787C1209.85 373.385 1210.45 376.222 1210.45 379.469H1244.45ZM1240 357.442C1237.1 350.552 1233.02 344.392 1227.76 339.128L1203.71 363.169C1205.74 365.196 1207.39 367.63 1208.66 370.636L1240 357.442ZM1227.76 339.128C1222.57 333.938 1216.54 329.87 1209.79 326.951L1196.29 358.158C1199.18 359.406 1201.61 361.067 1203.71 363.169L1227.76 339.128ZM1209.79 326.951C1202.75 323.908 1195.3 322.43 1187.61 322.43V356.43C1190.86 356.43 1193.69 357.035 1196.29 358.158L1209.79 326.951ZM1187.61 322.43C1179.84 322.43 1172.32 323.887 1165.19 326.887L1178.39 358.222C1181.16 357.056 1184.18 356.43 1187.61 356.43V322.43ZM1165.19 326.887C1158.3 329.788 1152.14 333.863 1146.88 339.128L1170.92 363.169C1172.95 361.142 1175.38 359.488 1178.39 358.222L1165.19 326.887ZM1146.88 339.128C1141.61 344.392 1137.54 350.552 1134.64 357.442L1165.97 370.636C1167.24 367.63 1168.89 365.196 1170.92 363.169L1146.88 339.128ZM1134.7 357.292C1131.66 364.329 1130.18 371.778 1130.18 379.469H1164.18C1164.18 376.222 1164.78 373.385 1165.91 370.787L1134.7 357.292ZM1130.18 379.469V499H1164.18V379.469H1130.18ZM1471.01 474.586L1484.8 464.653L1473.67 449.19L1459.57 462.007L1471.01 474.586ZM1457.14 485.719L1466.91 499.628L1466.95 499.603L1466.99 499.577L1457.14 485.719ZM1441.91 494.703L1449.05 510.127L1449.21 510.056L1449.36 509.982L1441.91 494.703ZM1425.3 500.562L1421.18 484.07L1420.96 484.126L1420.74 484.188L1425.3 500.562ZM1341.91 476.734L1329.89 488.755L1329.98 488.848L1330.07 488.939L1341.91 476.734ZM1321.79 446.07L1305.99 452.355L1306.03 452.458L1306.08 452.56L1321.79 446.07ZM1314.56 289.82V272.82H1297.56V289.82H1314.56ZM1367.69 289.82H1384.69V272.82H1367.69V289.82ZM1370.81 424.391L1354.88 430.319L1354.96 430.545L1355.05 430.769L1370.81 424.391ZM1379.6 438.258L1391.83 426.45L1379.6 438.258ZM1392.3 446.852L1385.91 462.606L1385.98 462.635L1386.06 462.664L1392.3 446.852ZM1423.55 446.07L1431.31 461.193L1431.39 461.154L1431.46 461.114L1423.55 446.07ZM1436.44 435.914L1423.64 424.719L1436.44 435.914ZM1445.03 421.852L1460.82 428.165L1460.84 428.099L1460.87 428.032L1445.03 421.852ZM1448.16 289.82V272.82H1431.16V289.82H1448.16ZM1501.48 289.82H1518.48V272.82H1501.48V289.82ZM1501.48 499V516H1518.48V499H1501.48ZM1488.59 499L1474.79 508.933L1479.88 516H1488.59V499ZM1459.57 462.007C1455.8 465.435 1451.71 468.722 1447.29 471.861L1466.99 499.577C1472.46 495.685 1477.62 491.549 1482.44 487.165L1459.57 462.007ZM1447.37 471.809C1443.29 474.673 1438.99 477.211 1434.45 479.424L1449.36 509.982C1455.5 506.987 1461.35 503.535 1466.91 499.628L1447.37 471.809ZM1434.76 479.279C1430.4 481.301 1425.87 482.897 1421.18 484.07L1429.43 517.055C1436.19 515.364 1442.74 513.054 1449.05 510.127L1434.76 479.279ZM1420.74 484.188C1416.64 485.332 1412.44 485.906 1408.12 485.906V519.906C1415.51 519.906 1422.78 518.918 1429.87 516.937L1420.74 484.188ZM1408.12 485.906C1397.28 485.906 1387.33 484 1378.13 480.299L1365.44 511.842C1378.9 517.255 1393.18 519.906 1408.12 519.906V485.906ZM1378.13 480.299C1368.81 476.547 1360.72 471.299 1353.74 464.53L1330.07 488.939C1340.28 498.837 1352.11 506.479 1365.44 511.842L1378.13 480.299ZM1353.93 464.714C1347.17 457.96 1341.67 449.664 1337.5 439.58L1306.08 452.56C1311.81 466.435 1319.71 478.582 1329.89 488.755L1353.93 464.714ZM1337.58 439.786C1333.67 429.951 1331.56 418.584 1331.56 405.445H1297.56C1297.56 422.254 1300.27 437.971 1305.99 452.355L1337.58 439.786ZM1331.56 405.445V289.82H1297.56V405.445H1331.56ZM1314.56 306.82H1367.69V272.82H1314.56V306.82ZM1350.69 289.82V405.445H1384.69V289.82H1350.69ZM1350.69 405.445C1350.69 414.15 1351.98 422.52 1354.88 430.319L1386.75 418.462C1385.48 415.063 1384.69 410.803 1384.69 405.445H1350.69ZM1355.05 430.769C1357.98 438.007 1362.04 444.54 1367.37 450.066L1391.83 426.45C1389.88 424.423 1388.07 421.711 1386.57 418.012L1355.05 430.769ZM1367.37 450.066C1372.65 455.534 1378.87 459.751 1385.91 462.606L1398.68 431.097C1396.09 430.045 1393.84 428.533 1391.83 426.45L1367.37 450.066ZM1386.06 462.664C1393.09 465.443 1400.5 466.781 1408.12 466.781V432.781C1404.54 432.781 1401.4 432.167 1398.54 431.039L1386.06 462.664ZM1408.12 466.781C1416.26 466.781 1424.07 464.913 1431.31 461.193L1415.78 430.948C1413.39 432.175 1410.91 432.781 1408.12 432.781V466.781ZM1431.46 461.114C1438.24 457.547 1444.2 452.863 1449.23 447.109L1423.64 424.719C1421.39 427.299 1418.75 429.385 1415.63 431.027L1431.46 461.114ZM1449.23 447.109C1454.16 441.476 1458.03 435.134 1460.82 428.165L1429.25 415.538C1427.87 418.986 1426.01 422.018 1423.64 424.719L1449.23 447.109ZM1460.87 428.032C1463.7 420.771 1465.16 413.209 1465.16 405.445H1431.16C1431.16 408.88 1430.53 412.255 1429.19 415.671L1460.87 428.032ZM1465.16 405.445V289.82H1431.16V405.445H1465.16ZM1448.16 306.82H1501.48V272.82H1448.16V306.82ZM1484.48 289.82V499H1518.48V289.82H1484.48ZM1501.48 482H1488.59V516H1501.48V482ZM1502.38 489.067L1484.8 464.653L1457.21 484.519L1474.79 508.933L1502.38 489.067ZM1808.31 499V516H1825.31V499H1808.31ZM1755.19 499H1738.19V516H1755.19V499ZM1753.04 355.836L1737.25 362.15L1737.36 362.418L1737.48 362.682L1753.04 355.836ZM1738.78 341.578L1731.93 357.138L1732.2 357.255L1732.47 357.362L1738.78 341.578ZM1718.08 341.578L1724.62 357.27L1724.77 357.206L1724.92 357.138L1718.08 341.578ZM1709.68 347.242L1697.66 335.221L1697.5 335.384L1697.34 335.551L1709.68 347.242ZM1704.02 355.836L1688.46 348.989L1688.34 349.254L1688.23 349.522L1704.02 355.836ZM1702.06 499V516H1719.06V499H1702.06ZM1648.74 499H1631.74V516H1648.74V499ZM1646.59 355.836L1630.81 362.15L1630.92 362.418L1631.03 362.682L1646.59 355.836ZM1632.34 341.578L1625.49 357.138L1625.75 357.255L1626.02 357.362L1632.34 341.578ZM1611.63 341.578L1618.17 357.27L1618.33 357.206L1618.48 357.138L1611.63 341.578ZM1603.23 347.242L1591.21 335.221L1591.05 335.384L1590.89 335.551L1603.23 347.242ZM1597.57 355.836L1582.01 348.989L1581.89 349.254L1581.79 349.522L1597.57 355.836ZM1595.62 499V516H1612.62V499H1595.62ZM1542.3 499H1525.3V516H1542.3V499ZM1542.3 289.82V272.82H1525.3V289.82H1542.3ZM1555.19 289.82L1567.81 278.431L1562.74 272.82H1555.19V289.82ZM1569.64 305.836L1557.02 317.225L1568.03 329.421L1580.59 318.839L1569.64 305.836ZM1594.05 291.383L1600.13 307.262L1600.19 307.238L1600.25 307.214L1594.05 291.383ZM1650.5 291.578L1644.26 307.393L1644.3 307.408L1644.34 307.422L1650.5 291.578ZM1675.11 310.523L1661.72 321.001L1675.53 338.647L1688.81 320.594L1675.11 310.523ZM1699.33 291.578L1692.79 275.886L1692.71 275.919L1692.63 275.953L1699.33 291.578ZM1713.78 287.477L1716.43 304.269L1716.65 304.235L1716.86 304.195L1713.78 287.477ZM1759.48 292.359L1752.74 307.963L1752.77 307.979L1752.81 307.996L1759.48 292.359ZM1784.88 309.547L1772.75 321.459L1772.85 321.568L1772.96 321.675L1784.88 309.547ZM1808.31 482H1755.19V516H1808.31V482ZM1772.19 499V366.188H1738.19V499H1772.19ZM1772.19 366.188C1772.19 360.245 1771.01 354.457 1768.6 348.989L1737.48 362.682C1737.94 363.725 1738.19 364.838 1738.19 366.188H1772.19ZM1768.82 349.522C1766.67 344.134 1763.5 339.327 1759.4 335.221L1735.35 359.263C1736.2 360.106 1736.81 361.027 1737.25 362.15L1768.82 349.522ZM1759.4 335.221C1755.29 331.116 1750.48 327.949 1745.09 325.794L1732.47 357.362C1733.59 357.811 1734.51 358.42 1735.35 359.263L1759.4 335.221ZM1745.63 326.018C1740.16 323.612 1734.37 322.43 1728.43 322.43V356.43C1729.78 356.43 1730.89 356.68 1731.93 357.138L1745.63 326.018ZM1728.43 322.43C1722.49 322.43 1716.7 323.612 1711.23 326.018L1724.92 357.138C1725.97 356.68 1727.08 356.43 1728.43 356.43V322.43ZM1711.54 325.886C1706.3 328.071 1701.65 331.231 1697.66 335.221L1721.7 359.263C1722.66 358.306 1723.61 357.69 1724.62 357.27L1711.54 325.886ZM1697.34 335.551C1693.59 339.504 1690.64 344.025 1688.46 348.989L1719.58 362.682C1720.26 361.136 1721.08 359.929 1722.02 358.934L1697.34 335.551ZM1688.23 349.522C1686.09 354.865 1685.06 360.467 1685.06 366.188H1719.06C1719.06 364.617 1719.33 363.317 1719.8 362.15L1688.23 349.522ZM1685.06 366.188V499H1719.06V366.188H1685.06ZM1702.06 482H1648.74V516H1702.06V482ZM1665.74 499V366.188H1631.74V499H1665.74ZM1665.74 366.188C1665.74 360.245 1664.56 354.457 1662.15 348.989L1631.03 362.682C1631.49 363.725 1631.74 364.838 1631.74 366.188H1665.74ZM1662.38 349.522C1660.22 344.134 1657.06 339.327 1652.95 335.221L1628.91 359.263C1629.75 360.106 1630.36 361.027 1630.81 362.15L1662.38 349.522ZM1652.95 335.221C1648.85 331.116 1644.04 327.949 1638.65 325.794L1626.02 357.362C1627.14 357.811 1628.07 358.42 1628.91 359.263L1652.95 335.221ZM1639.18 326.018C1633.71 323.612 1627.93 322.43 1621.98 322.43V356.43C1623.33 356.43 1624.45 356.68 1625.49 357.138L1639.18 326.018ZM1621.98 322.43C1616.04 322.43 1610.25 323.612 1604.79 326.018L1618.48 357.138C1619.52 356.68 1620.63 356.43 1621.98 356.43V322.43ZM1605.09 325.886C1599.85 328.071 1595.2 331.231 1591.21 335.221L1615.26 359.263C1616.21 358.306 1617.16 357.69 1618.17 357.27L1605.09 325.886ZM1590.89 335.551C1587.15 339.504 1584.19 344.025 1582.01 348.989L1613.13 362.682C1613.81 361.136 1614.63 359.929 1615.58 358.934L1590.89 335.551ZM1581.79 349.522C1579.65 354.865 1578.62 360.467 1578.62 366.188H1612.62C1612.62 364.617 1612.89 363.317 1613.35 362.15L1581.79 349.522ZM1578.62 366.188V499H1612.62V366.188H1578.62ZM1595.62 482H1542.3V516H1595.62V482ZM1559.3 499V289.82H1525.3V499H1559.3ZM1542.3 306.82H1555.19V272.82H1542.3V306.82ZM1542.57 301.21L1557.02 317.225L1582.26 294.447L1567.81 278.431L1542.57 301.21ZM1580.59 318.839C1586.59 313.785 1593.09 309.952 1600.13 307.262L1587.98 275.504C1577.31 279.584 1567.53 285.387 1558.69 292.832L1580.59 318.839ZM1600.25 307.214C1607.26 304.47 1614.47 303.109 1621.98 303.109V269.109C1610.23 269.109 1598.82 271.265 1587.86 275.552L1600.25 307.214ZM1621.98 303.109C1629.58 303.109 1636.97 304.516 1644.26 307.393L1656.74 275.763C1645.54 271.349 1633.92 269.109 1621.98 269.109V303.109ZM1644.34 307.422C1650.5 309.818 1656.32 314.093 1661.72 321.001L1688.5 300.046C1679.84 288.986 1669.25 280.629 1656.66 275.734L1644.34 307.422ZM1688.81 320.594C1691.13 317.434 1693.68 314.868 1696.44 312.795L1676.04 285.595C1670.47 289.773 1665.6 294.758 1661.41 300.453L1688.81 320.594ZM1696.44 312.795C1699.58 310.442 1702.77 308.597 1706.02 307.204L1692.63 275.953C1686.77 278.465 1681.24 281.699 1676.04 285.595L1696.44 312.795ZM1705.87 307.27C1709.32 305.83 1712.84 304.836 1716.43 304.269L1711.13 270.685C1704.83 271.68 1698.71 273.42 1692.79 275.886L1705.87 307.27ZM1716.86 304.195C1720.84 303.463 1724.69 303.109 1728.43 303.109V269.109C1722.53 269.109 1716.62 269.668 1710.7 270.758L1716.86 304.195ZM1728.43 303.109C1737.3 303.109 1745.35 304.767 1752.74 307.963L1766.23 276.756C1754.35 271.618 1741.69 269.109 1728.43 269.109V303.109ZM1752.81 307.996C1760.61 311.324 1767.2 315.815 1772.75 321.459L1797 297.635C1788.22 288.695 1777.89 281.728 1766.16 276.723L1752.81 307.996ZM1772.96 321.675C1778.61 327.218 1783.1 333.807 1786.43 341.609L1817.7 328.266C1812.69 316.536 1805.73 306.198 1796.79 297.418L1772.96 321.675ZM1786.43 341.609C1789.65 349.176 1791.31 357.314 1791.31 366.188H1825.31C1825.31 352.926 1822.8 340.23 1817.7 328.266L1786.43 341.609ZM1791.31 366.188V499H1825.31V366.188H1791.31Z" fill="black"/>
<path fill-rule="evenodd" clip-rule="evenodd" d="M425.503 417.698C416.354 458.887 390.625 496.252 351.205 519.011C276.591 562.089 181.183 536.525 138.105 461.911C95.0269 387.297 120.591 291.889 195.205 248.811C234.625 226.052 279.849 222.453 320.094 235.124C320.576 220.234 322.719 205.474 326.446 191.128C276.616 177.369 221.511 182.816 173.205 210.706C77.5466 265.935 44.7715 388.253 100 483.911C155.228 579.57 277.547 612.345 373.205 557.116C421.511 529.227 453.782 484.228 466.781 434.194C452.493 430.249 438.639 424.725 425.503 417.698Z" fill="#7A4BC6"/>
<path fill-rule="evenodd" clip-rule="evenodd" d="M600.054 195.205C643.132 269.819 617.567 365.227 542.954 408.305C523.302 419.651 502.207 426.235 481.007 428.416C475.662 444.159 468.235 459.218 458.848 473.139C494.804 474.272 531.508 465.72 564.954 446.41C660.612 391.182 693.387 268.864 638.159 173.205C582.93 77.5465 460.612 44.7715 364.954 100C331.179 119.5 305.243 147.363 288.253 179.464C304.999 178.205 321.759 179.215 338.08 182.37C350.632 164.816 367.047 149.598 386.954 138.105C461.567 95.0269 556.975 120.591 600.054 195.205Z" fill="#FF0000"/>
<circle cx="281.319" cy="382.1" r="62.9166" transform="rotate(-30 281.319 382.1)" fill="#7A4BC6"/>
<circle cx="467.682" cy="274.504" r="62.9166" transform="rotate(-30 467.682 274.504)" fill="#FF0000"/>
</svg>
