<svg width="1326" height="348" viewBox="0 0 1326 348" fill="none" xmlns="http://www.w3.org/2000/svg">
<path d="M250 126.25C250 195.976 194.036 252.5 125 252.5C55.9644 252.5 0 195.976 0 126.25C0 56.5241 55.9644 0 125 0C194.036 0 250 56.5241 250 126.25Z" fill="#FF0000"/>
<path fill-rule="evenodd" clip-rule="evenodd" d="M136.25 272.5C212.88 272.5 275 209.82 275 132.5C275 98.266 262.822 66.9018 242.599 42.5773C244.227 42.5259 245.86 42.5 247.5 42.5C331.724 42.5 400 110.777 400 195C400 279.223 331.724 347.5 247.5 347.5C190.909 347.5 141.517 316.675 115.2 270.899C122.064 271.953 129.094 272.5 136.25 272.5Z" fill="#7044BD"/>
<path d="M486.984 301.905L487.512 304.244H489.91H579.111H581.522L582.04 301.889L628.69 89.9664L629.492 86.3215H625.76H566.503H563.977L563.547 88.8106L536.87 243.15H531.82L504.21 88.7933L503.768 86.3215H501.257H442H438.246L439.074 89.983L486.984 301.905ZM638.448 301.244V304.244H641.448H695.347H698.347V301.244V143.789V140.789H695.347H641.448H638.448V143.789V301.244ZM638.133 125.007V128.007H641.133H695.662H698.662V125.007V84V81H695.662H641.133H638.133V84V125.007ZM720.018 301.244V304.244H723.018H776.916H779.916V301.244V194.003C781.307 193.465 782.908 192.916 784.727 192.361C787.304 191.573 789.988 190.98 792.782 190.584L792.864 190.572L792.945 190.556C795.922 189.965 798.773 189.674 801.501 189.674C806.068 189.674 809.132 190.804 811.137 192.642C813.212 194.545 814.906 197.806 815.892 202.896C816.891 208.055 817.413 215.04 817.413 223.925V301.244V304.244H820.413H874.942H877.942V301.244V220.795C877.942 200.829 876.148 184.642 872.457 172.351C868.727 159.931 862.253 150.769 852.848 145.286C843.788 139.676 831.509 137.033 816.316 137.033C811.585 137.033 806.588 137.813 801.339 139.33C796.362 140.622 791.592 142.343 787.034 144.495C784.467 145.589 782.093 146.69 779.916 147.798V143.789V140.789H776.916H723.018H720.018V143.789V301.244ZM918.631 298.602L918.666 298.63L918.702 298.656C927.364 304.995 938.88 308 952.939 308C961.796 308 969.697 306.823 976.589 304.4C981.962 302.677 987.578 300.345 993.436 297.418V301.244V304.244H996.436H1050.02H1053.02V301.244V143.789V140.789H1050.02H996.121H993.121V143.789V251.062C990.84 251.986 988.018 252.931 984.634 253.893C980.697 254.866 976.544 255.358 972.166 255.358C967.528 255.358 964.397 254.401 962.38 252.886C960.394 251.189 958.742 248.189 957.771 243.367C956.778 238.435 956.254 231.464 956.254 222.36V143.789V140.789H953.254H899.355H896.355V143.789V225.49C896.355 243.179 897.943 258.169 901.183 270.396L901.187 270.409C904.469 282.577 910.233 292.066 918.631 298.602ZM1074.61 301.244V304.244H1077.61H1131.51H1134.51V301.244V193.696C1136.44 192.977 1138.92 192.23 1142.01 191.464L1142.07 191.447L1142.14 191.428C1146.08 190.255 1149.99 189.674 1153.89 189.674C1158.35 189.674 1161.18 190.944 1162.97 193.017L1163.04 193.104L1163.12 193.185C1165.21 195.252 1166.83 198.795 1167.63 204.318L1167.63 204.37L1167.64 204.422C1168.65 210.022 1169.17 217.34 1169.17 226.429V301.244V304.244H1172.17H1226.39H1229.39V301.244V225.49C1229.39 218.956 1229.17 212.524 1228.75 206.194C1228.42 201.24 1227.88 197.058 1227.11 193.711C1229.11 192.942 1231.6 192.19 1234.64 191.472L1234.69 191.461L1234.74 191.448C1239.12 190.259 1243.38 189.674 1247.5 189.674C1251.95 189.674 1254.95 190.941 1256.98 193.106L1257.01 193.146L1257.05 193.185C1259.13 195.252 1260.76 198.796 1261.56 204.318L1261.56 204.37L1261.57 204.422C1262.58 210.025 1263.1 217.24 1263.1 226.116V301.244V304.244H1266.1H1320H1323V301.244V220.169C1323 201.666 1321.31 186.344 1317.85 174.292C1314.55 161.853 1308.3 152.412 1298.97 146.3C1289.65 139.991 1276.57 137.033 1260.11 137.033C1253.55 137.033 1246.9 137.9 1240.18 139.622C1233.73 141.117 1227.7 143.042 1222.07 145.406C1217.56 147.302 1213.64 149.146 1210.33 150.941C1206.51 146.876 1201.85 143.686 1196.4 141.359C1190 138.417 1181.98 137.033 1172.49 137.033C1165.13 137.033 1157.32 138.582 1149.08 141.598L1149.07 141.602L1149.05 141.607C1143.44 143.715 1138.59 145.79 1134.51 147.836V143.789V140.789H1131.51H1077.61H1074.61V143.789V301.244Z" fill="white" stroke="black" stroke-width="6"/>
</svg>
